<?xml version="1.0" encoding="utf-8"?>
<!-- Generator: Adobe Illustrator 26.0.1, SVG Export Plug-In . SVG Version: 6.00 Build 0)  -->
<svg version="1.2" baseProfile="tiny" id="Layer_1" xmlns="http://www.w3.org/2000/svg" xmlns:xlink="http://www.w3.org/1999/xlink"
	 x="0px" y="0px" viewBox="0 0 882.9 335.06" overflow="visible" xml:space="preserve">
<path d="M100.71,142.77v-0.83c33.97-8.29,48.07-58.89,20.47-83.01c-17.99-19.59-73.56-16.6-100.16-11.34v184H45.1V150.8
	c72.87-6.51,52.72,38.42,72.49,80.79h24.9C133.63,219.47,130.17,148.31,100.71,142.77z M69.73,132.54H45.1V64.47
	C126.24,44.99,133.45,131.55,69.73,132.54z"/>
<path d="M223.29,94.63c-101.22,7.02-78.75,182.75,47.59,131.43l-4.15-17.43c-29.44,13.35-84.06,11.2-83.01-39.57h94.07
	C281.31,139.56,272.06,95.73,223.29,94.63z M255.1,151.63H184C187.7,100,257.31,98.61,255.1,151.63z"/>
<path d="M371.04,114.28c13.28,0,22.41,3.04,28.22,6.36l5.53-18.81c-139.84-49.1-140.24,178.59-0.55,124.79l-4.15-18.26
	C318.64,247.06,291.04,119.32,371.04,114.28z"/>
<rect x="432.74" y="97.67" width="24.35" height="133.92"/>
<path d="M444.91,44.83c-19.62-0.37-20.27,30.16-0.55,30.16C465,75.77,464.58,44.4,444.91,44.83z"/>
<path d="M708.04,94.63c-101.22,7.02-78.75,182.75,47.59,131.43l-4.15-17.43c-29.44,13.35-84.06,11.2-83.01-39.57h94.07
	C766.06,139.56,756.81,95.73,708.04,94.63z M739.86,151.63h-71.11C672.45,100,742.06,98.62,739.86,151.63z"/>
<path d="M836.7,153.84c-55.55-19.8-10.67-57.15,24.35-33.2l6.09-17.71c-58.66-33.82-120.98,39.13-43.72,68.9
	c52.17,17.92,15.6,65.06-33.2,34.86l-6.09,18.54C846.48,261.26,917.99,188.42,836.7,153.84z"/>
<g>
	<g>
		<path d="M497.78,212.28c8.48,0,16.96,0,25.44,0c0,0.89,0,1.76,0,2.64c-0.32-0.34-0.65-0.68-0.97-1.02
			c-0.09,0.04-0.18,0.08-0.27,0.12c0,0.5,0,1,0,1.5c0,23.2,0,46.41,0,69.61c0,0.52,0.03,1.04,0.04,1.55c-8.08,0-16.16,0-24.24,0
			c0.01-24.28,0.03-48.56,0.04-72.84C497.82,213.32,497.8,212.8,497.78,212.28z"/>
	</g>
</g>
<g>
	<g>
		<path d="M608.18,215.52c-12.16,0-24.32,0-36.48,0c0.31-0.15,0.61-0.34,0.94-0.45c3.61-1.18,6.88-2.98,9.83-5.37
			c6.63-5.37,10.85-12.39,13.7-20.3c3.55-9.86,4.68-20.04,3.79-30.44c-0.75-8.85-2.93-17.31-7.36-25.09
			c-8.43-14.81-21.79-20.63-37.31-18.32c-15.82,2.36-27.94,14.74-31.45,30.02c-2,8.7-2.58,17.62-2.18,26.57
			c0.34,7.63,1.51,15.1,4.44,22.21c3.38,8.19,8.66,14.71,16.84,18.52c2.3,1.07,4.76,1.78,7.15,2.65c-17.36,0-34.72,0-52.08,0
			c0.04-1.84,0.12-3.67,0.11-5.51c-0.01-11.4-0.03-22.79-0.08-34.19c-0.06-15.27-0.09-30.55-0.26-45.82
			c-0.11-9.35-0.46-18.7-0.69-28.04c-0.03-1.06,0-2.13,0-3.19c7.25,0,14.47,0,21.75,0c0.38,7.68,0.75,15.28,1.13,22.89
			c0.14,0.02,0.27,0.05,0.41,0.07c0.3-0.45,0.6-0.89,0.89-1.35c5.61-8.71,12.91-15.52,22.42-19.79c10.27-4.61,21.05-5.76,32.13-4.37
			c14.1,1.77,25.54,8.35,34.15,19.65c8.82,11.59,12.8,24.98,14.03,39.29c0.76,8.89,0.3,17.73-1.42,26.49
			c-2.35,11.99-6.68,23.15-13.97,33.05C608.43,214.95,608.33,215.25,608.18,215.52z"/>
	</g>
</g>
<g>
</g>
<g>
</g>
<g>
</g>
<g>
</g>
<g>
</g>
<g>
</g>
<g>
</g>
<g>
</g>
<g>
</g>
<g>
</g>
<g>
</g>
<g>
</g>
<g>
</g>
<g>
</g>
<g>
</g>
<g>
	<g>
		<path d="M621.43,215.75c-0.08,0.14-0.17,0.27-0.23,0.42c-10.79,25.69-21.58,51.38-32.37,77.06c-5.85,13.93-11.7,27.86-17.55,41.79
			c-0.02,0.04-0.04,0.07-0.06,0.11c-0.11,0-0.22,0-0.33,0c-0.05-0.17-0.09-0.34-0.16-0.5c-6.66-15.86-13.31-31.71-19.97-47.57
			c-7.66-18.24-15.33-36.49-23-54.73c-2.36-5.61-4.72-11.23-7.07-16.84c-0.06-0.15-0.12-0.3-0.19-0.5c0.19,0,0.34,0,0.48,0
			c33.35,0,66.69,0,100.04,0c0.14,0,0.27,0.01,0.41,0.01C621.43,215.26,621.43,215.51,621.43,215.75z M565.46,245.05
			c4.27-4.17,8.51-8.31,12.77-12.46c-3.49-3.58-6.95-7.13-10.44-10.69c-4.26,4.16-8.5,8.3-12.76,12.46
			C558.51,237.93,561.97,241.48,565.46,245.05z M581.1,232.99c3.31,3.39,6.59,6.76,9.9,10.15c4.41-4.3,8.79-8.58,13.19-12.87
			c-3.33-3.41-6.6-6.77-9.9-10.14C589.89,224.42,585.52,228.68,581.1,232.99z M553.74,235.61c-4.13,4.03-8.23,8.03-12.35,12.05
			c3.5,3.59,6.96,7.13,10.43,10.69c4.13-4.03,8.23-8.03,12.35-12.05C560.7,242.74,557.24,239.19,553.74,235.61z M573.14,308.71
			c1.94-1.9,3.86-3.77,5.77-5.65c0.11-0.11,0.18-0.27,0.24-0.42c1.3-3.08,2.59-6.17,3.9-9.25c0.12-0.27,0.08-0.43-0.12-0.63
			c-1.35-1.37-2.67-2.77-4.04-4.12c-1.14-1.13-2.33-2.21-3.52-3.33c-4.19,4.09-8.5,8.3-12.84,12.53
			C566.07,301.47,569.6,305.08,573.14,308.71z M587.53,270.24c-3.44-3.52-6.84-7.01-10.25-10.51c-4.14,4.04-8.24,8.04-12.35,12.05
			c3.44,3.52,6.84,7.01,10.25,10.51C579.31,278.26,583.4,274.27,587.53,270.24z M576.96,256.84c4.26-4.16,8.51-8.31,12.76-12.46
			c-3.32-3.41-6.6-6.77-9.9-10.15c-4.26,4.15-8.5,8.29-12.77,12.46C570.37,250.08,573.65,253.45,576.96,256.84z M588.81,268.98
			c0.22-0.21,0.41-0.38,0.59-0.56c1.95-1.9,3.9-3.79,5.83-5.7c0.49-0.49,1.08-0.88,1.36-1.57c0.88-2.16,1.79-4.3,2.71-6.45
			c0.11-0.27,0.09-0.43-0.12-0.64c-2-2.04-3.98-4.09-5.98-6.13c-0.61-0.62-1.26-1.22-1.93-1.86c-4.21,4.11-8.45,8.25-12.71,12.41
			C581.99,262,585.39,265.48,588.81,268.98z M575.68,258.09c-3.31-3.4-6.6-6.77-9.9-10.15c-4.13,4.03-8.23,8.03-12.35,12.05
			c3.31,3.39,6.6,6.76,9.9,10.15C567.45,266.12,571.55,262.13,575.68,258.09z M573.91,283.54c-3.43-3.52-6.84-7-10.24-10.5
			c-0.07,0.06-0.11,0.09-0.15,0.12c-2.96,2.89-5.91,5.78-8.88,8.66c-0.22,0.21-0.21,0.37-0.11,0.63c1.68,3.98,3.37,7.96,5.01,11.95
			c0.3,0.74,0.85,1.22,1.4,1.79C565.26,291.97,569.56,287.77,573.91,283.54z M541.54,223.11c-0.56,0.54-1.08,1.04-1.6,1.55
			c-2.18,2.13-4.36,4.26-6.55,6.38c-0.24,0.23-0.3,0.41-0.17,0.73c1.81,4.28,3.61,8.57,5.41,12.85c0.25,0.6,0.76,0.94,1.16,1.4
			c4.14-4.04,8.23-8.04,12.35-12.05C548.6,230.34,545.09,226.75,541.54,223.11z M542.88,221.98c3.49,3.58,7.01,7.19,10.54,10.81
			c4.27-4.17,8.51-8.31,12.76-12.45c-0.01-0.04-0.02-0.08-0.03-0.12c-0.18-0.02-0.36-0.05-0.54-0.05c-3.66,0-7.31,0-10.97,0
			c-3.22,0-6.43,0-9.65,0.01c-0.19,0-0.43,0.05-0.56,0.17C543.92,220.86,543.42,221.41,542.88,221.98z M562.05,271.39
			c-3.32-3.4-6.61-6.77-9.9-10.15c-1.46,1.42-2.89,2.83-4.33,4.21c-0.24,0.23-0.27,0.4-0.14,0.7c1.87,4.42,3.72,8.84,5.58,13.27
			c0.05,0.12,0.11,0.23,0.19,0.37C556.32,276.98,559.17,274.2,562.05,271.39z M605.7,232c-4.31,4.21-8.7,8.49-13.1,12.78
			c2.55,2.61,5.06,5.18,7.59,7.77c0.06-0.15,0.1-0.24,0.14-0.32c1.57-3.73,3.13-7.46,4.7-11.19c0.92-2.19,1.84-4.37,2.75-6.56
			c0.06-0.15,0.08-0.41,0-0.5C607.11,233.3,606.41,232.66,605.7,232z M590.93,220.26c-0.01-0.03-0.02-0.06-0.03-0.1
			c-0.17,0-0.34,0-0.51,0c-6.69,0-13.38,0.01-20.07-0.01c-0.53,0-0.93,0.12-1.21,0.6c3.45,3.54,6.92,7.09,10.4,10.66
			C583.33,227.67,587.13,223.97,590.93,220.26z M589.06,271.94c-4.05,3.96-8.16,7.96-12.28,11.98c2.39,2.45,4.75,4.87,7.14,7.32
			c0.07-0.16,0.12-0.26,0.16-0.36c1-2.38,2-4.75,2.99-7.13c1.32-3.15,2.65-6.29,3.96-9.45c0.06-0.14,0.08-0.38,0-0.46
			C590.41,273.21,589.74,272.59,589.06,271.94z M596.79,220.19c2.93,3.01,5.79,5.94,8.65,8.87c0.07-0.04,0.11-0.06,0.13-0.09
			c1.96-1.9,3.93-3.79,5.87-5.72c0.74-0.73,1.39-1.55,2.06-2.35c0.16-0.19,0.24-0.44,0.4-0.71
			C608.18,220.19,602.54,220.19,596.79,220.19z M528.35,220.19c1.27,3.01,2.5,5.96,3.77,8.97c2.63-2.57,5.22-5.09,7.89-7.7
			c-0.41-0.37-0.79-0.68-1.13-1.03c-0.19-0.2-0.38-0.27-0.64-0.27c-3.14,0.01-6.29,0-9.43,0.01
			C528.67,220.17,528.55,220.18,528.35,220.19z M571.86,309.96c-3.35-3.43-6.66-6.83-9.98-10.22c-0.02,0.02-0.05,0.04-0.07,0.05
			c1.98,4.71,3.96,9.42,5.95,14.17C569.14,312.61,570.48,311.3,571.86,309.96z M540.85,249.66c-0.02,0.02-0.05,0.04-0.07,0.06
			c1.92,4.57,3.84,9.14,5.78,13.77c1.36-1.33,2.67-2.61,3.98-3.89C547.29,256.26,544.07,252.96,540.85,249.66z M573.45,311.61
			c-1.55,1.51-3.08,3-4.6,4.51c-0.07,0.07-0.05,0.28-0.01,0.39c0.31,0.76,0.63,1.52,0.95,2.28c0.42,1,0.84,1.99,1.26,3
			c0.05-0.04,0.07-0.06,0.08-0.08c1.2-2.84,2.39-5.68,3.58-8.53c0.04-0.09,0.02-0.26-0.04-0.32
			C574.28,312.44,573.87,312.04,573.45,311.61z M608.73,232.23c0.72-1.71,1.45-3.46,2.19-5.22c-0.02-0.01-0.05-0.03-0.07-0.04
			c-1.25,1.22-2.51,2.44-3.82,3.73C607.61,231.21,608.17,231.71,608.73,232.23z M591.99,272.07c0.67-1.59,1.36-3.25,2.06-4.91
			c-0.02-0.01-0.04-0.02-0.06-0.03c-1.19,1.16-2.37,2.31-3.6,3.51C590.94,271.13,591.46,271.6,591.99,272.07z M576.66,308.57
			c-0.02-0.01-0.05-0.03-0.07-0.04c-0.59,0.63-1.18,1.25-1.76,1.87c0.21,0.22,0.46,0.48,0.74,0.78
			C575.94,310.28,576.3,309.43,576.66,308.57z"/>
	</g>
</g>
</svg>
